<?xml version="1.0" encoding="UTF-8" standalone="no"?><!DOCTYPE svg PUBLIC "-//W3C//DTD SVG 1.1//EN" "http://www.w3.org/Graphics/SVG/1.1/DTD/svg11.dtd"><svg width="100%" height="100%" viewBox="0 0 1667 1667" version="1.1" xmlns="http://www.w3.org/2000/svg" xmlns:xlink="http://www.w3.org/1999/xlink" xml:space="preserve" xmlns:serif="http://www.serif.com/" style="fill-rule:evenodd;clip-rule:evenodd;stroke-linecap:round;stroke-linejoin:round;stroke-miterlimit:1.5;"><g><g id="GroupMe-Shape" serif:id="GroupMe Shape"><path d="M42.066,912.243l-0,-197.925c0.567,-101.523 23.639,-242.937 40.498,-299.451c8.654,-29.009 23.055,-81.985 57.91,-138.255c25.354,-40.93 60.944,-90.239 116.785,-124.677c22.787,-14.053 86.895,-49.864 180.441,-74.856c33.009,-8.818 85.429,-17.284 119.188,-21.594c88.199,-11.261 174.475,-13.419 197.535,-13.419l197.926,-0c101.522,0.567 242.937,23.639 299.45,40.498c29.009,8.654 81.986,23.055 138.255,57.91c40.931,25.354 90.24,60.944 124.678,116.785c14.053,22.787 49.864,86.895 74.855,180.441c8.819,33.009 17.284,85.429 21.595,119.188c11.261,88.199 13.419,174.475 13.419,197.535l-0,197.926c-0.568,101.522 -23.64,242.937 -40.498,299.45c-8.654,29.009 -23.056,81.986 -57.911,138.255c-25.353,40.931 -60.943,90.24 -116.784,124.678c-22.787,14.053 -86.895,49.864 -180.441,74.855c-33.009,8.819 -85.43,17.284 -119.189,21.595c-88.199,11.261 -174.475,13.419 -197.535,13.419l-197.925,-0c-101.523,-0.568 -242.937,-23.64 -299.451,-40.498c-29.009,-8.654 -81.985,-23.056 -138.255,-57.911c-40.93,-25.353 -90.239,-60.943 -124.677,-116.784c-14.053,-22.787 -49.864,-86.895 -74.856,-180.441c-8.818,-33.009 -17.284,-85.43 -21.594,-119.189c-11.261,-88.199 -13.419,-174.475 -13.419,-197.535Z" style="fill:url(#_Linear1);stroke:#fff;stroke-width:41.67px;"/></g><g id="GroupMe-House" serif:id="GroupMe House"><path d="M833.333,860.662c0,0.012 -3.955,2.697 -3.955,3.939c-0,0.592 -20.571,21.412 -31.528,34.969c-11.129,13.769 -22.767,28.994 -31.29,44.201c-8.322,14.846 -14.584,32.501 -19.852,47.04c-4.365,12.046 -11.511,37.837 -11.634,41.712c-0.116,3.67 -0.771,29.373 -0.748,61.097c0.032,47.018 0.701,107.119 -0.085,127.178c-0.181,4.628 -4.157,8.575 -7.686,11.575c-3.848,3.272 -9.615,7.804 -15.404,8.056c-30.977,1.35 -140.04,1.402 -170.458,0.043c-4.854,-0.217 -8.737,-4.848 -12.053,-8.196c-3.316,-3.349 -7.387,-7.168 -7.843,-11.895c-1.97,-20.421 -2.947,-73.746 -3.977,-110.633c-1.262,-45.18 -2.933,-114.311 -3.595,-160.444c-0.557,-38.78 -0.317,-79.804 -0.379,-116.352c-0.058,-34.311 -0.051,-81.841 0.01,-102.933c0.023,-7.875 0.443,-8.314 0.242,-15.532c-0.186,-6.651 2.266,-24.819 3.405,-27.778c2.941,-7.642 15.195,-14.71 23.044,-21.793c9.601,-8.666 23.08,-20.088 34.562,-30.199c14.673,-12.922 35.513,-31.712 53.475,-47.332c18.976,-16.501 44.771,-38.602 60.378,-51.675c10.868,-9.105 21.716,-18.725 32.143,-28.083c13.441,-12.062 35.932,-30.323 50.088,-42.483c12.013,-10.319 27.098,-24.902 35.29,-31.808c4.559,-3.844 11.249,-7.893 16.077,-7.85c3.329,0.03 11.773,-0.566 11.773,-0.119c0,-0.447 8.444,0.149 11.774,0.119c4.828,-0.043 11.517,4.006 16.077,7.85c8.191,6.906 23.277,21.489 35.29,31.808c14.155,12.16 36.647,30.421 50.088,42.483c10.427,9.358 21.274,18.978 32.143,28.083c15.607,13.073 41.402,35.174 60.377,51.675c17.963,15.62 38.803,34.41 53.476,47.332c11.481,10.111 24.961,21.533 34.562,30.199c7.848,7.083 20.103,14.151 23.044,21.793c1.139,2.959 3.59,21.127 3.405,27.778c-0.201,7.218 0.219,7.657 0.242,15.532c0.061,21.092 0.067,68.622 0.01,102.933c-0.062,36.548 0.177,77.572 -0.379,116.352c-0.663,46.133 -2.333,115.264 -3.595,160.444c-1.031,36.887 -2.008,90.212 -3.978,110.633c-0.456,4.727 -4.527,8.546 -7.843,11.895c-3.316,3.348 -7.198,7.979 -12.052,8.196c-30.418,1.359 -139.481,1.307 -170.458,-0.043c-5.789,-0.252 -11.556,-4.784 -15.404,-8.056c-3.529,-3 -7.505,-6.947 -7.686,-11.575c-0.836,-21.333 -0.224,-77.406 0.429,-124.727c0.644,-46.699 -0.563,-60.451 -0.741,-63.697c-0.212,-3.871 -7.791,-29.517 -12.155,-41.563c-5.268,-14.539 -11.531,-32.194 -19.852,-47.04c-8.523,-15.207 -20.161,-30.432 -31.29,-44.201c-10.957,-13.557 -31.528,-34.377 -31.528,-34.969c-0,-1.242 -3.956,-3.927 -3.956,-3.939Z" style="fill:#fff;"/></g></g><defs><linearGradient id="_Linear1" x1="0" y1="0" x2="1" y2="0" gradientUnits="userSpaceOnUse" gradientTransform="matrix(1266.41,1266.41,-1266.41,1266.41,201.211,201.211)"><stop offset="0" style="stop-color:#42a5f5;stop-opacity:1"/><stop offset="1" style="stop-color:#68bb6a;stop-opacity:1"/></linearGradient></defs></svg>