<?xml version="1.0" encoding="UTF-8"?>
<svg version="1.1" xmlns="http://www.w3.org/2000/svg" width="300" height="300">
<path d="M0 0 C7.26 0 14.52 0 22 0 C22.70125 2.990625 23.4025 5.98125 24.125 9.0625 C32.11723531 41.52996679 51.3025057 70.27613874 80 88 C80.97324219 88.62261719 81.94648437 89.24523437 82.94921875 89.88671875 C110.54530806 106.87176171 145.23459057 111.99993276 176.71484375 105 C210.03617414 97.01214988 239.82477753 77.47810692 258 48 C267.10954882 32.95347435 272.40923294 17.15588709 276 0 C283.26 0 290.52 0 298 0 C293.7909282 38.72346053 273.31752217 73.52241451 243.25415039 98.02319336 C211.99568688 122.5009523 171.86070083 133.72097705 132.4296875 129.46875 C98.14602973 125.15853924 68.17379027 111.36088287 43.37646484 87.32519531 C42.21325874 86.20531544 41.02523717 85.11129731 39.83203125 84.0234375 C16.89170038 62.54939582 3.56348934 30.77558977 0 0 Z " fill="#FFFFFF" transform="translate(1,169)"/>
<path d="M0 0 C3.37747688 2.98062808 6.6539267 6.05697628 9.88818359 9.19189453 C11.05138969 10.3117744 12.23941126 11.40579253 13.43261719 12.49365234 C36.37294805 33.96769402 49.7011591 65.74150007 53.26464844 96.51708984 C46.00464844 96.51708984 38.74464844 96.51708984 31.26464844 96.51708984 C30.56339844 93.52646484 29.86214844 90.53583984 29.13964844 87.45458984 C21.14741313 54.98712305 1.96214274 26.2409511 -26.73535156 8.51708984 C-27.70859375 7.89447266 -28.68183594 7.27185547 -29.68457031 6.63037109 C-57.28065963 -10.35467186 -91.96994213 -15.48284292 -123.45019531 -8.48291016 C-156.7715257 -0.49506004 -186.56012909 19.03898293 -204.73535156 48.51708984 C-213.84490039 63.5636155 -219.1445845 79.36120276 -222.73535156 96.51708984 C-229.99535156 96.51708984 -237.25535156 96.51708984 -244.73535156 96.51708984 C-240.52627977 57.79362931 -220.05287373 22.99467533 -189.98950195 -1.50610352 C-135.82159411 -43.92370316 -53.08630195 -45.36384328 0 0 Z " fill="#FFFFFF" transform="translate(245.7353515625,34.48291015625)"/>
<path d="M0 0 C1.63097855 1.14724143 3.20462367 2.37541769 4.76171875 3.62109375 C4.19212722 7.24722574 2.83797341 8.87627116 0.19921875 11.37109375 C-0.76177734 12.29148438 -0.76177734 12.29148438 -1.7421875 13.23046875 C-2.23589844 13.689375 -2.72960937 14.14828125 -3.23828125 14.62109375 C-5.48985215 13.51915969 -7.60868302 12.38959265 -9.73828125 11.05859375 C-14.67690278 8.21888637 -19.6040518 7.90569425 -25.22265625 9.01171875 C-31.17896297 10.81246264 -34.99372654 14.36206276 -38.23828125 19.62109375 C-40.62211713 25.50500611 -40.72826021 30.63244479 -38.34375 36.515625 C-35.68594734 41.57765905 -32.66220523 45.32466709 -27.30078125 47.55859375 C-20.44930644 49.65173881 -14.56361295 48.7910301 -8.23828125 45.62109375 C-7.57828125 44.96109375 -6.91828125 44.30109375 -6.23828125 43.62109375 C-2.67513751 43.92293031 -0.9199724 45.55935562 1.51171875 48.05859375 C2.1253125 48.67605469 2.73890625 49.29351562 3.37109375 49.9296875 C4.76171875 51.62109375 4.76171875 51.62109375 4.76171875 53.62109375 C-3.52978965 60.65809497 -12.21208244 63.28261141 -22.96875 62.95703125 C-34.73631544 61.7479385 -42.20735987 55.55500102 -49.67578125 46.74609375 C-55.0557075 35.98624124 -55.40256426 26.17095933 -51.6953125 14.87890625 C-47.46837374 5.42778848 -39.42265072 -0.83240117 -30.05078125 -4.69140625 C-19.27781697 -6.63407194 -9.44314483 -5.81750458 0 0 Z " fill="#FFFFFF" transform="translate(204.23828125,121.37890625)"/>
<path d="M0 0 C4.29 0 8.58 0 13 0 C19.6 13.2 26.2 26.4 33 40 C40.92141642 25.00360459 40.92141642 25.00360459 48.5625 9.875 C49.39532288 8.18400194 50.22985801 6.4938457 51.06640625 4.8046875 C51.5914978 3.73710205 51.5914978 3.73710205 52.12719727 2.64794922 C53 1 53 1 54 0 C56.18639453 -0.07258946 58.37500389 -0.08373783 60.5625 -0.0625 C62.35880859 -0.04896484 62.35880859 -0.04896484 64.19140625 -0.03515625 C65.11824219 -0.02355469 66.04507813 -0.01195313 67 0 C59.94379232 16.30767998 52.02071174 32.14726057 44.01513672 48.00195312 C40.65664905 54.65787638 37.33010332 61.3298445 34 68 C31.02630127 65.42607091 29.56436947 62.50924232 27.8137207 59.015625 C27.51092194 58.41528442 27.20812317 57.81494385 26.89614868 57.19641113 C25.89997953 55.21724412 24.91262289 53.23383231 23.92578125 51.25 C23.23539235 49.87124343 22.54464729 48.49266515 21.8535614 47.11425781 C20.4081463 44.22784682 18.96708738 41.33931349 17.52905273 38.44921875 C15.68437626 34.74275529 13.82895781 31.04179311 11.97025776 27.34234619 C10.54272612 24.49811494 9.12091473 21.65105454 7.70082664 18.80310059 C7.01880317 17.43705104 6.33499276 16.07189215 5.64937782 14.7076416 C4.69311708 12.80272672 3.74461822 10.89414316 2.7980957 8.984375 C2.25643265 7.89866211 1.71476959 6.81294922 1.1566925 5.69433594 C0 3 0 3 0 0 Z " fill="#FFFFFF" transform="translate(84,116)"/>
</svg>
